{
    "asset" : {
        "generator" : "Khronos glTF Blender I/O v1.6.16",
        "version" : "2.0"
    },
    "scene" : 0,
    "scenes" : [
        {
            "extras" : {
                "b_settings" : 1,
                "b_vr_controllers" : 0,
                "b_cast_shadows" : 1,
                "b_renderer" : 1,
                "b_aa" : 1,
                "b_colorManagement" : 1,
                "b_physicallyCorrectLights" : 1,
                "b_player" : 0,
                "b_raycast" : 0,
                "b_bake_lightmap" : 0,
                "b_export" : 1,
                "b_export_single_model" : 1,
                "export_path" : "D:\\Users\\chany\\Documents\\GVC\\Media Team\\Logo\\A-Frame\\",
                "s_output" : "exporting..."
            },
            "name" : "Scene",
            "nodes" : [
                0,
                1,
                3,
                4,
                6
            ]
        }
    ],
    "nodes" : [
        {
            "name" : "Light",
            "rotation" : [
                0.16907575726509094,
                0.7558803558349609,
                -0.27217137813568115,
                0.570947527885437
            ],
            "translation" : [
                -0.8385680913925171,
                2.193942070007324,
                1.3697004318237305
            ]
        },
        {
            "name" : "Camera",
            "rotation" : [
                0.5963653922080994,
                -0.16743066906929016,
                0.12893879413604736,
                0.7743965983390808
            ],
            "translation" : [
                -1.1751155853271484,
                1.0463244915008545,
                2.5859909057617188
            ]
        },
        {
            "mesh" : 0,
            "name" : "Top"
        },
        {
            "children" : [
                2
            ],
            "mesh" : 1,
            "name" : "Base",
            "translation" : [
                0,
                0.10000000149011612,
                0
            ]
        },
        {
            "mesh" : 2,
            "name" : "BezierCurve",
            "rotation" : [
                0.6830138564109802,
                -0.18300838768482208,
                0.1830134093761444,
                -0.6830124855041504
            ],
            "scale" : [
                -0.027785522863268852,
                -0.03113996423780918,
                -0.019408676773309708
            ],
            "translation" : [
                0,
                0.45475584268569946,
                0
            ]
        },
        {
            "mesh" : 3,
            "name" : "Top.001"
        },
        {
            "children" : [
                5
            ],
            "mesh" : 4,
            "name" : "Bottom",
            "scale" : [
                0.015403282828629017,
                0.015403282828629017,
                0.015403282828629017
            ],
            "translation" : [
                0,
                0.24715390801429749,
                2.5587523850845173e-06
            ]
        }
    ],
    "materials" : [
        {
            "doubleSided" : true,
            "name" : "Material.002",
            "pbrMetallicRoughness" : {
                "baseColorFactor" : [
                    0.800000011920929,
                    0.800000011920929,
                    0.800000011920929,
                    1
                ],
                "metallicFactor" : 0,
                "roughnessFactor" : 0.5
            }
        },
        {
            "doubleSided" : true,
            "name" : "Material.003",
            "pbrMetallicRoughness" : {
                "baseColorFactor" : [
                    0.11493568122386932,
                    0,
                    0.006586681120097637,
                    1
                ],
                "metallicFactor" : 0,
                "roughnessFactor" : 0.5
            }
        },
        {
            "doubleSided" : true,
            "name" : "Material.005",
            "pbrMetallicRoughness" : {
                "baseColorFactor" : [
                    0.023650381714105606,
                    0.023650381714105606,
                    0.023650381714105606,
                    1
                ],
                "metallicFactor" : 0,
                "roughnessFactor" : 0.5
            }
        }
    ],
    "meshes" : [
        {
            "name" : "Cylinder.004",
            "primitives" : [
                {
                    "attributes" : {
                        "POSITION" : 0,
                        "NORMAL" : 1,
                        "TANGENT" : 2,
                        "TEXCOORD_0" : 3
                    },
                    "indices" : 4,
                    "material" : 0
                }
            ]
        },
        {
            "name" : "Cylinder.002",
            "primitives" : [
                {
                    "attributes" : {
                        "POSITION" : 5,
                        "NORMAL" : 6,
                        "TANGENT" : 7,
                        "TEXCOORD_0" : 8
                    },
                    "indices" : 9,
                    "material" : 1
                }
            ]
        },
        {
            "name" : "BezierCurve",
            "primitives" : [
                {
                    "attributes" : {
                        "POSITION" : 10,
                        "NORMAL" : 11,
                        "TANGENT" : 12,
                        "TEXCOORD_0" : 13
                    },
                    "indices" : 14
                }
            ]
        },
        {
            "name" : "Cube.001",
            "primitives" : [
                {
                    "attributes" : {
                        "POSITION" : 15,
                        "NORMAL" : 16,
                        "TEXCOORD_0" : 17
                    },
                    "indices" : 18,
                    "material" : 1
                }
            ]
        },
        {
            "name" : "Cube.003",
            "primitives" : [
                {
                    "attributes" : {
                        "POSITION" : 19,
                        "NORMAL" : 20,
                        "TEXCOORD_0" : 21
                    },
                    "indices" : 22,
                    "material" : 2
                }
            ]
        }
    ],
    "accessors" : [
        {
            "bufferView" : 0,
            "componentType" : 5126,
            "count" : 13465,
            "max" : [
                0.2041623592376709,
                0.10542240738868713,
                0.2041623294353485
            ],
            "min" : [
                -0.2041623294353485,
                0.060542620718479156,
                -0.2041623443365097
            ],
            "type" : "VEC3"
        },
        {
            "bufferView" : 1,
            "componentType" : 5126,
            "count" : 13465,
            "type" : "VEC3"
        },
        {
            "bufferView" : 2,
            "componentType" : 5126,
            "count" : 13465,
            "type" : "VEC4"
        },
        {
            "bufferView" : 3,
            "componentType" : 5126,
            "count" : 13465,
            "type" : "VEC2"
        },
        {
            "bufferView" : 4,
            "componentType" : 5123,
            "count" : 67200,
            "type" : "SCALAR"
        },
        {
            "bufferView" : 5,
            "componentType" : 5126,
            "count" : 701,
            "max" : [
                0.1967371255159378,
                0.1000000461935997,
                0.196737140417099
            ],
            "min" : [
                -0.1967371255159378,
                -0.1000000461935997,
                -0.1967371106147766
            ],
            "type" : "VEC3"
        },
        {
            "bufferView" : 6,
            "componentType" : 5126,
            "count" : 701,
            "type" : "VEC3"
        },
        {
            "bufferView" : 7,
            "componentType" : 5126,
            "count" : 701,
            "type" : "VEC4"
        },
        {
            "bufferView" : 8,
            "componentType" : 5126,
            "count" : 701,
            "type" : "VEC2"
        },
        {
            "bufferView" : 9,
            "componentType" : 5123,
            "count" : 2640,
            "type" : "SCALAR"
        },
        {
            "bufferView" : 10,
            "componentType" : 5126,
            "count" : 325,
            "max" : [
                0.3357941806316376,
                0.04000547155737877,
                0.4688367247581482
            ],
            "min" : [
                -0.2908550202846527,
                -0.04000511020421982,
                -0.567839503288269
            ],
            "type" : "VEC3"
        },
        {
            "bufferView" : 11,
            "componentType" : 5126,
            "count" : 325,
            "type" : "VEC3"
        },
        {
            "bufferView" : 12,
            "componentType" : 5126,
            "count" : 325,
            "type" : "VEC4"
        },
        {
            "bufferView" : 13,
            "componentType" : 5126,
            "count" : 325,
            "type" : "VEC2"
        },
        {
            "bufferView" : 14,
            "componentType" : 5123,
            "count" : 1728,
            "type" : "SCALAR"
        },
        {
            "bufferView" : 15,
            "componentType" : 5126,
            "count" : 1666,
            "max" : [
                5,
                13,
                1
            ],
            "min" : [
                -1,
                3,
                -1.0000016689300537
            ],
            "type" : "VEC3"
        },
        {
            "bufferView" : 16,
            "componentType" : 5126,
            "count" : 1666,
            "type" : "VEC3"
        },
        {
            "bufferView" : 17,
            "componentType" : 5126,
            "count" : 1666,
            "type" : "VEC2"
        },
        {
            "bufferView" : 18,
            "componentType" : 5123,
            "count" : 3264,
            "type" : "SCALAR"
        },
        {
            "bufferView" : 19,
            "componentType" : 5126,
            "count" : 834,
            "max" : [
                3,
                3,
                1
            ],
            "min" : [
                -3,
                -3,
                -1
            ],
            "type" : "VEC3"
        },
        {
            "bufferView" : 20,
            "componentType" : 5126,
            "count" : 834,
            "type" : "VEC3"
        },
        {
            "bufferView" : 21,
            "componentType" : 5126,
            "count" : 834,
            "type" : "VEC2"
        },
        {
            "bufferView" : 22,
            "componentType" : 5123,
            "count" : 1632,
            "type" : "SCALAR"
        }
    ],
    "bufferViews" : [
        {
            "buffer" : 0,
            "byteLength" : 161580,
            "byteOffset" : 0
        },
        {
            "buffer" : 0,
            "byteLength" : 161580,
            "byteOffset" : 161580
        },
        {
            "buffer" : 0,
            "byteLength" : 215440,
            "byteOffset" : 323160
        },
        {
            "buffer" : 0,
            "byteLength" : 107720,
            "byteOffset" : 538600
        },
        {
            "buffer" : 0,
            "byteLength" : 134400,
            "byteOffset" : 646320
        },
        {
            "buffer" : 0,
            "byteLength" : 8412,
            "byteOffset" : 780720
        },
        {
            "buffer" : 0,
            "byteLength" : 8412,
            "byteOffset" : 789132
        },
        {
            "buffer" : 0,
            "byteLength" : 11216,
            "byteOffset" : 797544
        },
        {
            "buffer" : 0,
            "byteLength" : 5608,
            "byteOffset" : 808760
        },
        {
            "buffer" : 0,
            "byteLength" : 5280,
            "byteOffset" : 814368
        },
        {
            "buffer" : 0,
            "byteLength" : 3900,
            "byteOffset" : 819648
        },
        {
            "buffer" : 0,
            "byteLength" : 3900,
            "byteOffset" : 823548
        },
        {
            "buffer" : 0,
            "byteLength" : 5200,
            "byteOffset" : 827448
        },
        {
            "buffer" : 0,
            "byteLength" : 2600,
            "byteOffset" : 832648
        },
        {
            "buffer" : 0,
            "byteLength" : 3456,
            "byteOffset" : 835248
        },
        {
            "buffer" : 0,
            "byteLength" : 19992,
            "byteOffset" : 838704
        },
        {
            "buffer" : 0,
            "byteLength" : 19992,
            "byteOffset" : 858696
        },
        {
            "buffer" : 0,
            "byteLength" : 13328,
            "byteOffset" : 878688
        },
        {
            "buffer" : 0,
            "byteLength" : 6528,
            "byteOffset" : 892016
        },
        {
            "buffer" : 0,
            "byteLength" : 10008,
            "byteOffset" : 898544
        },
        {
            "buffer" : 0,
            "byteLength" : 10008,
            "byteOffset" : 908552
        },
        {
            "buffer" : 0,
            "byteLength" : 6672,
            "byteOffset" : 918560
        },
        {
            "buffer" : 0,
            "byteLength" : 3264,
            "byteOffset" : 925232
        }
    ],
    "buffers" : [
        {
            "byteLength" : 928496,
            "uri" : "data:application/octet-stream;base64,"
        }
    ]
}
